<svg width="24" height="24" fill="none" xmlns="http://www.w3.org/2000/svg">
    <path d="M12 24c6.627 0 12-5.373 12-12S18.627 0 12 0 0 5.373 0 12s5.373 12 12 12z" fill="#0052B4"/>
    <path d="m12 4.696.388 1.196h1.258l-1.018.739.389 1.195L12 7.087l-1.017.74.388-1.196-1.017-.74h1.257L12 4.697zM6.835 6.835l1.12.57.89-.888-.197 1.242 1.12.57-1.242.197-.197 1.242-.57-1.12-1.242.196.889-.889-.571-1.12zM4.696 12l1.195-.388v-1.257l.74 1.017 1.195-.389L7.087 12l.74 1.018-1.197-.389-.739 1.017V12.39L4.696 12zM6.835 17.165l.57-1.12-.888-.889 1.242.197.57-1.12.197 1.241 1.242.197-1.12.57.196 1.242-.889-.889-1.12.571zM12 19.304l-.389-1.195h-1.257l1.017-.74-.388-1.195 1.017.739 1.017-.739-.388 1.196 1.017.739h-1.258L12 19.304zM17.165 17.165l-1.12-.57-.89.889.197-1.242-1.12-.571 1.242-.197.197-1.242.57 1.12 1.242-.196-.889.89.571 1.12zM19.304 12l-1.195.389v1.257l-.74-1.017-1.195.389.74-1.018-.74-1.017 1.196.389.739-1.017v1.257l1.195.388zM17.165 6.835l-.57 1.12.888.89-1.242-.197-.57 1.12-.197-1.242-1.242-.197 1.12-.57-.196-1.242.889.889 1.12-.57z"
          fill="#FFDA44"/>
</svg>